<mxfile host="65bd71144e">
    <diagram name="Auth sequence" id="Se88GaxFKbUh9CCA8DhL">
        <mxGraphModel dx="953" dy="631" grid="1" gridSize="10" guides="1" tooltips="1" connect="1" arrows="1" fold="1" page="1" pageScale="1" pageWidth="827" pageHeight="1169" math="0" shadow="0">
            <root>
                <mxCell id="0"/>
                <mxCell id="1" parent="0"/>
                <mxCell id="12" style="edgeStyle=none;html=1;dashed=1;strokeColor=default;endArrow=none;endFill=0;" edge="1" parent="1" source="9">
                    <mxGeometry relative="1" as="geometry">
                        <mxPoint x="115" y="440" as="targetPoint"/>
                    </mxGeometry>
                </mxCell>
                <mxCell id="2" value="" style="shape=umlActor;verticalLabelPosition=bottom;verticalAlign=top;html=1;" vertex="1" parent="1">
                    <mxGeometry x="100" y="70" width="30" height="60" as="geometry"/>
                </mxCell>
                <mxCell id="5" value="Servire" style="shape=umlLifeline;perimeter=lifelinePerimeter;whiteSpace=wrap;html=1;container=1;dropTarget=0;collapsible=0;recursiveResize=0;outlineConnect=0;portConstraint=eastwest;newEdgeStyle={&quot;edgeStyle&quot;:&quot;elbowEdgeStyle&quot;,&quot;elbow&quot;:&quot;vertical&quot;,&quot;curved&quot;:0,&quot;rounded&quot;:0};" vertex="1" parent="1">
                    <mxGeometry x="640" y="70" width="100" height="370" as="geometry"/>
                </mxCell>
                <mxCell id="6" value="" style="html=1;points=[[0,0,0,0,5],[0,1,0,0,-5],[1,0,0,0,5],[1,1,0,0,-5]];perimeter=orthogonalPerimeter;outlineConnect=0;targetShapes=umlLifeline;portConstraint=eastwest;newEdgeStyle={&quot;curved&quot;:0,&quot;rounded&quot;:0};fillColor=default;" vertex="1" parent="5">
                    <mxGeometry x="45" y="90" width="10" height="240" as="geometry"/>
                </mxCell>
                <mxCell id="11" value="" style="group" vertex="1" connectable="0" parent="1">
                    <mxGeometry x="340" y="70" width="100" height="370" as="geometry"/>
                </mxCell>
                <mxCell id="7" value="App" style="shape=umlLifeline;perimeter=lifelinePerimeter;whiteSpace=wrap;html=1;container=0;dropTarget=0;collapsible=0;recursiveResize=0;outlineConnect=0;portConstraint=eastwest;newEdgeStyle={&quot;edgeStyle&quot;:&quot;elbowEdgeStyle&quot;,&quot;elbow&quot;:&quot;vertical&quot;,&quot;curved&quot;:0,&quot;rounded&quot;:0};" vertex="1" parent="11">
                    <mxGeometry width="100" height="370" as="geometry"/>
                </mxCell>
                <mxCell id="8" value="" style="html=1;points=[[0,0,0,0,5],[0,1,0,0,-5],[1,0,0,0,5],[1,1,0,0,-5]];perimeter=orthogonalPerimeter;outlineConnect=0;targetShapes=umlLifeline;portConstraint=eastwest;newEdgeStyle={&quot;curved&quot;:0,&quot;rounded&quot;:0};" vertex="1" parent="11">
                    <mxGeometry x="45" y="90" width="10" height="240" as="geometry"/>
                </mxCell>
                <mxCell id="13" value="" style="edgeStyle=none;html=1;dashed=1;strokeColor=default;endArrow=none;endFill=0;" edge="1" parent="1" source="2" target="9">
                    <mxGeometry relative="1" as="geometry">
                        <mxPoint x="115" y="490" as="targetPoint"/>
                        <mxPoint x="115" y="130" as="sourcePoint"/>
                    </mxGeometry>
                </mxCell>
                <mxCell id="14" style="edgeStyle=none;html=1;curved=0;rounded=0;" edge="1" parent="1">
                    <mxGeometry relative="1" as="geometry">
                        <mxPoint x="120" y="190" as="sourcePoint"/>
                        <mxPoint x="385" y="190" as="targetPoint"/>
                    </mxGeometry>
                </mxCell>
                <mxCell id="19" value="Enter mot pass/ username" style="edgeLabel;html=1;align=center;verticalAlign=middle;resizable=0;points=[];" vertex="1" connectable="0" parent="14">
                    <mxGeometry x="-0.2679" y="3" relative="1" as="geometry">
                        <mxPoint x="23" as="offset"/>
                    </mxGeometry>
                </mxCell>
                <mxCell id="9" value="" style="html=1;points=[[0,0,0,0,5],[0,1,0,0,-5],[1,0,0,0,5],[1,1,0,0,-5]];perimeter=orthogonalPerimeter;outlineConnect=0;targetShapes=umlLifeline;portConstraint=eastwest;newEdgeStyle={&quot;curved&quot;:0,&quot;rounded&quot;:0};" vertex="1" parent="1">
                    <mxGeometry x="110" y="160" width="10" height="240" as="geometry"/>
                </mxCell>
                <mxCell id="15" style="edgeStyle=none;html=1;curved=0;rounded=0;" edge="1" parent="1" source="8" target="5">
                    <mxGeometry relative="1" as="geometry">
                        <Array as="points">
                            <mxPoint x="420" y="190"/>
                        </Array>
                    </mxGeometry>
                </mxCell>
                <mxCell id="20" value="check for the user" style="edgeLabel;html=1;align=center;verticalAlign=middle;resizable=0;points=[];" vertex="1" connectable="0" parent="15">
                    <mxGeometry x="-0.0526" y="1" relative="1" as="geometry">
                        <mxPoint as="offset"/>
                    </mxGeometry>
                </mxCell>
                <mxCell id="17" style="edgeStyle=none;html=1;curved=0;rounded=0;dashed=1;" edge="1" parent="1">
                    <mxGeometry relative="1" as="geometry">
                        <mxPoint x="120" y="279.58" as="targetPoint"/>
                        <mxPoint x="385" y="279.58" as="sourcePoint"/>
                    </mxGeometry>
                </mxCell>
                <mxCell id="27" value="done log in" style="edgeLabel;html=1;align=center;verticalAlign=middle;resizable=0;points=[];" vertex="1" connectable="0" parent="17">
                    <mxGeometry x="0.0226" y="-1" relative="1" as="geometry">
                        <mxPoint as="offset"/>
                    </mxGeometry>
                </mxCell>
                <mxCell id="30" style="edgeStyle=none;html=1;curved=0;rounded=0;dashed=1;" edge="1" parent="1">
                    <mxGeometry relative="1" as="geometry">
                        <mxPoint x="385" y="359.9999999999999" as="sourcePoint"/>
                        <mxPoint x="120" y="359.9999999999999" as="targetPoint"/>
                    </mxGeometry>
                </mxCell>
                <mxCell id="31" value="username of password flase" style="edgeLabel;html=1;align=center;verticalAlign=middle;resizable=0;points=[];" vertex="1" connectable="0" parent="30">
                    <mxGeometry x="0.5887" y="-2" relative="1" as="geometry">
                        <mxPoint x="76" y="2" as="offset"/>
                    </mxGeometry>
                </mxCell>
                <mxCell id="35" value="ALT" style="shape=umlFrame;whiteSpace=wrap;html=1;pointerEvents=0;recursiveResize=0;container=1;collapsible=0;width=170;" vertex="1" parent="1">
                    <mxGeometry x="50" y="220" width="680" height="200" as="geometry"/>
                </mxCell>
                <mxCell id="36" value="if true" style="text;html=1;" vertex="1" parent="35">
                    <mxGeometry width="100" height="20" relative="1" as="geometry">
                        <mxPoint x="18" y="30" as="offset"/>
                    </mxGeometry>
                </mxCell>
                <mxCell id="37" value="else" style="line;strokeWidth=1;dashed=1;labelPosition=center;verticalLabelPosition=bottom;align=left;verticalAlign=top;spacingLeft=20;spacingTop=15;html=1;whiteSpace=wrap;" vertex="1" parent="35">
                    <mxGeometry y="100" width="680" height="10" as="geometry"/>
                </mxCell>
                <mxCell id="28" style="edgeStyle=none;html=1;curved=0;rounded=0;dashed=1;" edge="1" parent="1">
                    <mxGeometry relative="1" as="geometry">
                        <mxPoint x="685" y="359.9999999999999" as="sourcePoint"/>
                        <mxPoint x="395" y="359.9999999999999" as="targetPoint"/>
                    </mxGeometry>
                </mxCell>
                <mxCell id="29" value="No user" style="edgeLabel;html=1;align=center;verticalAlign=middle;resizable=0;points=[];" vertex="1" connectable="0" parent="28">
                    <mxGeometry x="-0.0368" y="2" relative="1" as="geometry">
                        <mxPoint as="offset"/>
                    </mxGeometry>
                </mxCell>
                <mxCell id="18" style="edgeStyle=none;html=1;curved=0;rounded=0;dashed=1;" edge="1" parent="1">
                    <mxGeometry relative="1" as="geometry">
                        <mxPoint x="685" y="279.58" as="sourcePoint"/>
                        <mxPoint x="395" y="279.58" as="targetPoint"/>
                    </mxGeometry>
                </mxCell>
                <mxCell id="21" value="user information" style="edgeLabel;html=1;align=center;verticalAlign=middle;resizable=0;points=[];" vertex="1" connectable="0" parent="18">
                    <mxGeometry x="0.0264" y="-1" relative="1" as="geometry">
                        <mxPoint as="offset"/>
                    </mxGeometry>
                </mxCell>
            </root>
        </mxGraphModel>
    </diagram>
    <diagram id="qkIb5m18XcJ4B-VAU2Da" name="Class diagrma">
        <mxGraphModel dx="915" dy="606" grid="1" gridSize="10" guides="1" tooltips="1" connect="1" arrows="1" fold="1" page="1" pageScale="1" pageWidth="850" pageHeight="1100" math="0" shadow="0">
            <root>
                <mxCell id="0"/>
                <mxCell id="1" parent="0"/>
                <mxCell id="POBW0bMGeZY_YxSFRNm5-33" value="User" style="swimlane;fontStyle=1;align=center;verticalAlign=top;childLayout=stackLayout;horizontal=1;startSize=26;horizontalStack=0;resizeParent=1;resizeParentMax=0;resizeLast=0;collapsible=1;marginBottom=0;whiteSpace=wrap;html=1;" vertex="1" parent="1">
                    <mxGeometry x="70" y="120" width="160" height="164" as="geometry"/>
                </mxCell>
                <mxCell id="POBW0bMGeZY_YxSFRNm5-55" value="- name: String" style="text;strokeColor=none;fillColor=none;align=left;verticalAlign=top;spacingLeft=4;spacingRight=4;overflow=hidden;rotatable=0;points=[[0,0.5],[1,0.5]];portConstraint=eastwest;whiteSpace=wrap;html=1;" vertex="1" parent="POBW0bMGeZY_YxSFRNm5-33">
                    <mxGeometry y="26" width="160" height="26" as="geometry"/>
                </mxCell>
                <mxCell id="POBW0bMGeZY_YxSFRNm5-56" value="- state: String" style="text;strokeColor=none;fillColor=none;align=left;verticalAlign=top;spacingLeft=4;spacingRight=4;overflow=hidden;rotatable=0;points=[[0,0.5],[1,0.5]];portConstraint=eastwest;whiteSpace=wrap;html=1;" vertex="1" parent="POBW0bMGeZY_YxSFRNm5-33">
                    <mxGeometry y="52" width="160" height="26" as="geometry"/>
                </mxCell>
                <mxCell id="POBW0bMGeZY_YxSFRNm5-58" value="- username: String" style="text;strokeColor=none;fillColor=none;align=left;verticalAlign=top;spacingLeft=4;spacingRight=4;overflow=hidden;rotatable=0;points=[[0,0.5],[1,0.5]];portConstraint=eastwest;whiteSpace=wrap;html=1;" vertex="1" parent="POBW0bMGeZY_YxSFRNm5-33">
                    <mxGeometry y="78" width="160" height="26" as="geometry"/>
                </mxCell>
                <mxCell id="POBW0bMGeZY_YxSFRNm5-57" value="- adresse: String" style="text;strokeColor=none;fillColor=none;align=left;verticalAlign=top;spacingLeft=4;spacingRight=4;overflow=hidden;rotatable=0;points=[[0,0.5],[1,0.5]];portConstraint=eastwest;whiteSpace=wrap;html=1;" vertex="1" parent="POBW0bMGeZY_YxSFRNm5-33">
                    <mxGeometry y="104" width="160" height="26" as="geometry"/>
                </mxCell>
                <mxCell id="POBW0bMGeZY_YxSFRNm5-34" value="- nmrTlp: String" style="text;strokeColor=none;fillColor=none;align=left;verticalAlign=top;spacingLeft=4;spacingRight=4;overflow=hidden;rotatable=0;points=[[0,0.5],[1,0.5]];portConstraint=eastwest;whiteSpace=wrap;html=1;" vertex="1" parent="POBW0bMGeZY_YxSFRNm5-33">
                    <mxGeometry y="130" width="160" height="26" as="geometry"/>
                </mxCell>
                <mxCell id="POBW0bMGeZY_YxSFRNm5-35" value="" style="line;strokeWidth=1;fillColor=none;align=left;verticalAlign=middle;spacingTop=-1;spacingLeft=3;spacingRight=3;rotatable=0;labelPosition=right;points=[];portConstraint=eastwest;strokeColor=inherit;" vertex="1" parent="POBW0bMGeZY_YxSFRNm5-33">
                    <mxGeometry y="156" width="160" height="8" as="geometry"/>
                </mxCell>
                <mxCell id="POBW0bMGeZY_YxSFRNm5-53" style="html=1;endArrow=block;endFill=0;endSize=20;entryX=1;entryY=0.5;entryDx=0;entryDy=0;" edge="1" parent="1" source="POBW0bMGeZY_YxSFRNm5-37" target="POBW0bMGeZY_YxSFRNm5-55">
                    <mxGeometry relative="1" as="geometry">
                        <mxPoint x="228.1052631578948" y="163.52631578947376" as="targetPoint"/>
                    </mxGeometry>
                </mxCell>
                <mxCell id="POBW0bMGeZY_YxSFRNm5-37" value="Service" style="swimlane;fontStyle=1;align=center;verticalAlign=top;childLayout=stackLayout;horizontal=1;startSize=26;horizontalStack=0;resizeParent=1;resizeParentMax=0;resizeLast=0;collapsible=1;marginBottom=0;whiteSpace=wrap;html=1;" vertex="1" parent="1">
                    <mxGeometry x="425" y="140" width="160" height="34" as="geometry"/>
                </mxCell>
                <mxCell id="POBW0bMGeZY_YxSFRNm5-39" value="" style="line;strokeWidth=1;fillColor=none;align=left;verticalAlign=middle;spacingTop=-1;spacingLeft=3;spacingRight=3;rotatable=0;labelPosition=right;points=[];portConstraint=eastwest;strokeColor=inherit;" vertex="1" parent="POBW0bMGeZY_YxSFRNm5-37">
                    <mxGeometry y="26" width="160" height="8" as="geometry"/>
                </mxCell>
                <mxCell id="POBW0bMGeZY_YxSFRNm5-41" value="Employee" style="swimlane;fontStyle=1;align=center;verticalAlign=top;childLayout=stackLayout;horizontal=1;startSize=26;horizontalStack=0;resizeParent=1;resizeParentMax=0;resizeLast=0;collapsible=1;marginBottom=0;whiteSpace=wrap;html=1;" vertex="1" parent="1">
                    <mxGeometry x="70" y="400" width="160" height="216" as="geometry"/>
                </mxCell>
                <mxCell id="POBW0bMGeZY_YxSFRNm5-66" value="- prenom: String" style="text;strokeColor=none;fillColor=none;align=left;verticalAlign=top;spacingLeft=4;spacingRight=4;overflow=hidden;rotatable=0;points=[[0,0.5],[1,0.5]];portConstraint=eastwest;whiteSpace=wrap;html=1;" vertex="1" parent="POBW0bMGeZY_YxSFRNm5-41">
                    <mxGeometry y="26" width="160" height="26" as="geometry"/>
                </mxCell>
                <mxCell id="POBW0bMGeZY_YxSFRNm5-68" value="- timeIn: Date" style="text;strokeColor=none;fillColor=none;align=left;verticalAlign=top;spacingLeft=4;spacingRight=4;overflow=hidden;rotatable=0;points=[[0,0.5],[1,0.5]];portConstraint=eastwest;whiteSpace=wrap;html=1;" vertex="1" parent="POBW0bMGeZY_YxSFRNm5-41">
                    <mxGeometry y="52" width="160" height="26" as="geometry"/>
                </mxCell>
                <mxCell id="POBW0bMGeZY_YxSFRNm5-65" value="- timeOut: Date" style="text;strokeColor=none;fillColor=none;align=left;verticalAlign=top;spacingLeft=4;spacingRight=4;overflow=hidden;rotatable=0;points=[[0,0.5],[1,0.5]];portConstraint=eastwest;whiteSpace=wrap;html=1;" vertex="1" parent="POBW0bMGeZY_YxSFRNm5-41">
                    <mxGeometry y="78" width="160" height="26" as="geometry"/>
                </mxCell>
                <mxCell id="POBW0bMGeZY_YxSFRNm5-64" value="- salaire: Double" style="text;strokeColor=none;fillColor=none;align=left;verticalAlign=top;spacingLeft=4;spacingRight=4;overflow=hidden;rotatable=0;points=[[0,0.5],[1,0.5]];portConstraint=eastwest;whiteSpace=wrap;html=1;" vertex="1" parent="POBW0bMGeZY_YxSFRNm5-41">
                    <mxGeometry y="104" width="160" height="26" as="geometry"/>
                </mxCell>
                <mxCell id="POBW0bMGeZY_YxSFRNm5-62" value="- typeUser: String" style="text;strokeColor=none;fillColor=none;align=left;verticalAlign=top;spacingLeft=4;spacingRight=4;overflow=hidden;rotatable=0;points=[[0,0.5],[1,0.5]];portConstraint=eastwest;whiteSpace=wrap;html=1;" vertex="1" parent="POBW0bMGeZY_YxSFRNm5-41">
                    <mxGeometry y="130" width="160" height="26" as="geometry"/>
                </mxCell>
                <mxCell id="POBW0bMGeZY_YxSFRNm5-63" value="- image: String" style="text;strokeColor=none;fillColor=none;align=left;verticalAlign=top;spacingLeft=4;spacingRight=4;overflow=hidden;rotatable=0;points=[[0,0.5],[1,0.5]];portConstraint=eastwest;whiteSpace=wrap;html=1;" vertex="1" parent="POBW0bMGeZY_YxSFRNm5-41">
                    <mxGeometry y="156" width="160" height="26" as="geometry"/>
                </mxCell>
                <mxCell id="POBW0bMGeZY_YxSFRNm5-42" value="- fingerPrinte: String" style="text;strokeColor=none;fillColor=none;align=left;verticalAlign=top;spacingLeft=4;spacingRight=4;overflow=hidden;rotatable=0;points=[[0,0.5],[1,0.5]];portConstraint=eastwest;whiteSpace=wrap;html=1;" vertex="1" parent="POBW0bMGeZY_YxSFRNm5-41">
                    <mxGeometry y="182" width="160" height="26" as="geometry"/>
                </mxCell>
                <mxCell id="POBW0bMGeZY_YxSFRNm5-43" value="" style="line;strokeWidth=1;fillColor=none;align=left;verticalAlign=middle;spacingTop=-1;spacingLeft=3;spacingRight=3;rotatable=0;labelPosition=right;points=[];portConstraint=eastwest;strokeColor=inherit;" vertex="1" parent="POBW0bMGeZY_YxSFRNm5-41">
                    <mxGeometry y="208" width="160" height="8" as="geometry"/>
                </mxCell>
                <mxCell id="POBW0bMGeZY_YxSFRNm5-72" style="edgeStyle=elbowEdgeStyle;html=1;entryX=1;entryY=0.5;entryDx=0;entryDy=0;endArrow=none;endFill=0;" edge="1" parent="1" source="POBW0bMGeZY_YxSFRNm5-45" target="POBW0bMGeZY_YxSFRNm5-37">
                    <mxGeometry relative="1" as="geometry">
                        <Array as="points">
                            <mxPoint x="680" y="330"/>
                        </Array>
                    </mxGeometry>
                </mxCell>
                <mxCell id="POBW0bMGeZY_YxSFRNm5-76" value="1" style="edgeLabel;html=1;align=center;verticalAlign=middle;resizable=0;points=[];" vertex="1" connectable="0" parent="POBW0bMGeZY_YxSFRNm5-72">
                    <mxGeometry x="0.9087" y="-1" relative="1" as="geometry">
                        <mxPoint as="offset"/>
                    </mxGeometry>
                </mxCell>
                <mxCell id="POBW0bMGeZY_YxSFRNm5-77" value="1" style="edgeLabel;html=1;align=center;verticalAlign=middle;resizable=0;points=[];" vertex="1" connectable="0" parent="POBW0bMGeZY_YxSFRNm5-72">
                    <mxGeometry x="-0.9068" y="1" relative="1" as="geometry">
                        <mxPoint as="offset"/>
                    </mxGeometry>
                </mxCell>
                <mxCell id="POBW0bMGeZY_YxSFRNm5-78" value="placime" style="edgeLabel;html=1;align=center;verticalAlign=middle;resizable=0;points=[];" vertex="1" connectable="0" parent="POBW0bMGeZY_YxSFRNm5-72">
                    <mxGeometry x="-0.0959" y="1" relative="1" as="geometry">
                        <mxPoint as="offset"/>
                    </mxGeometry>
                </mxCell>
                <mxCell id="POBW0bMGeZY_YxSFRNm5-75" style="edgeStyle=none;html=1;entryX=1;entryY=0.5;entryDx=0;entryDy=0;endArrow=none;endFill=0;" edge="1" parent="1" source="POBW0bMGeZY_YxSFRNm5-45" target="POBW0bMGeZY_YxSFRNm5-63">
                    <mxGeometry relative="1" as="geometry"/>
                </mxCell>
                <mxCell id="POBW0bMGeZY_YxSFRNm5-81" value="1" style="edgeLabel;html=1;align=center;verticalAlign=middle;resizable=0;points=[];" vertex="1" connectable="0" parent="POBW0bMGeZY_YxSFRNm5-75">
                    <mxGeometry x="0.8973" relative="1" as="geometry">
                        <mxPoint as="offset"/>
                    </mxGeometry>
                </mxCell>
                <mxCell id="POBW0bMGeZY_YxSFRNm5-82" value="1..*" style="edgeLabel;html=1;align=center;verticalAlign=middle;resizable=0;points=[];" vertex="1" connectable="0" parent="POBW0bMGeZY_YxSFRNm5-75">
                    <mxGeometry x="-0.893" relative="1" as="geometry">
                        <mxPoint as="offset"/>
                    </mxGeometry>
                </mxCell>
                <mxCell id="POBW0bMGeZY_YxSFRNm5-84" value="Checking" style="edgeLabel;html=1;align=center;verticalAlign=middle;resizable=0;points=[];" vertex="1" connectable="0" parent="POBW0bMGeZY_YxSFRNm5-75">
                    <mxGeometry x="0.0757" y="1" relative="1" as="geometry">
                        <mxPoint as="offset"/>
                    </mxGeometry>
                </mxCell>
                <mxCell id="POBW0bMGeZY_YxSFRNm5-45" value="Appointment" style="swimlane;fontStyle=1;align=center;verticalAlign=top;childLayout=stackLayout;horizontal=1;startSize=26;horizontalStack=0;resizeParent=1;resizeParentMax=0;resizeLast=0;collapsible=1;marginBottom=0;whiteSpace=wrap;html=1;" vertex="1" parent="1">
                    <mxGeometry x="600" y="500" width="160" height="138" as="geometry"/>
                </mxCell>
                <mxCell id="POBW0bMGeZY_YxSFRNm5-60" value="- id: attribute" style="text;strokeColor=none;fillColor=none;align=left;verticalAlign=top;spacingLeft=4;spacingRight=4;overflow=hidden;rotatable=0;points=[[0,0.5],[1,0.5]];portConstraint=eastwest;whiteSpace=wrap;html=1;" vertex="1" parent="POBW0bMGeZY_YxSFRNm5-45">
                    <mxGeometry y="26" width="160" height="26" as="geometry"/>
                </mxCell>
                <mxCell id="POBW0bMGeZY_YxSFRNm5-61" value="- checkIn: Date" style="text;strokeColor=none;fillColor=none;align=left;verticalAlign=top;spacingLeft=4;spacingRight=4;overflow=hidden;rotatable=0;points=[[0,0.5],[1,0.5]];portConstraint=eastwest;whiteSpace=wrap;html=1;" vertex="1" parent="POBW0bMGeZY_YxSFRNm5-45">
                    <mxGeometry y="52" width="160" height="26" as="geometry"/>
                </mxCell>
                <mxCell id="POBW0bMGeZY_YxSFRNm5-59" value="- checkOut: Date" style="text;strokeColor=none;fillColor=none;align=left;verticalAlign=top;spacingLeft=4;spacingRight=4;overflow=hidden;rotatable=0;points=[[0,0.5],[1,0.5]];portConstraint=eastwest;whiteSpace=wrap;html=1;" vertex="1" parent="POBW0bMGeZY_YxSFRNm5-45">
                    <mxGeometry y="78" width="160" height="26" as="geometry"/>
                </mxCell>
                <mxCell id="POBW0bMGeZY_YxSFRNm5-46" value="- date: Date" style="text;strokeColor=none;fillColor=none;align=left;verticalAlign=top;spacingLeft=4;spacingRight=4;overflow=hidden;rotatable=0;points=[[0,0.5],[1,0.5]];portConstraint=eastwest;whiteSpace=wrap;html=1;" vertex="1" parent="POBW0bMGeZY_YxSFRNm5-45">
                    <mxGeometry y="104" width="160" height="26" as="geometry"/>
                </mxCell>
                <mxCell id="POBW0bMGeZY_YxSFRNm5-47" value="" style="line;strokeWidth=1;fillColor=none;align=left;verticalAlign=middle;spacingTop=-1;spacingLeft=3;spacingRight=3;rotatable=0;labelPosition=right;points=[];portConstraint=eastwest;strokeColor=inherit;" vertex="1" parent="POBW0bMGeZY_YxSFRNm5-45">
                    <mxGeometry y="130" width="160" height="8" as="geometry"/>
                </mxCell>
                <mxCell id="POBW0bMGeZY_YxSFRNm5-50" style="edgeStyle=none;html=1;entryX=0.5;entryY=1;entryDx=0;entryDy=0;endArrow=block;endFill=0;endSize=20;" edge="1" parent="1" source="POBW0bMGeZY_YxSFRNm5-41" target="POBW0bMGeZY_YxSFRNm5-33">
                    <mxGeometry relative="1" as="geometry">
                        <mxPoint x="140.4000000000001" y="312.418" as="targetPoint"/>
                    </mxGeometry>
                </mxCell>
                <mxCell id="POBW0bMGeZY_YxSFRNm5-71" style="edgeStyle=orthogonalEdgeStyle;html=1;entryX=1.014;entryY=0.123;entryDx=0;entryDy=0;entryPerimeter=0;endArrow=none;endFill=0;" edge="1" parent="1" source="POBW0bMGeZY_YxSFRNm5-37" target="POBW0bMGeZY_YxSFRNm5-65">
                    <mxGeometry relative="1" as="geometry"/>
                </mxCell>
                <mxCell id="POBW0bMGeZY_YxSFRNm5-79" value="1" style="edgeLabel;html=1;align=center;verticalAlign=middle;resizable=0;points=[];" vertex="1" connectable="0" parent="POBW0bMGeZY_YxSFRNm5-71">
                    <mxGeometry x="0.9367" y="-1" relative="1" as="geometry">
                        <mxPoint as="offset"/>
                    </mxGeometry>
                </mxCell>
                <mxCell id="POBW0bMGeZY_YxSFRNm5-83" value="employe" style="edgeLabel;html=1;align=center;verticalAlign=middle;resizable=0;points=[];" vertex="1" connectable="0" parent="POBW0bMGeZY_YxSFRNm5-71">
                    <mxGeometry x="0.3739" y="-2" relative="1" as="geometry">
                        <mxPoint as="offset"/>
                    </mxGeometry>
                </mxCell>
                <mxCell id="POBW0bMGeZY_YxSFRNm5-80" value="1..*" style="text;html=1;align=center;verticalAlign=middle;resizable=0;points=[];autosize=1;strokeColor=none;fillColor=none;" vertex="1" parent="1">
                    <mxGeometry x="500" y="178" width="40" height="30" as="geometry"/>
                </mxCell>
            </root>
        </mxGraphModel>
    </diagram>
    <diagram id="t9uGYZP883eJn9bIvMDU" name="qr code sequence">
        <mxGraphModel dx="1144" dy="757" grid="1" gridSize="10" guides="1" tooltips="1" connect="1" arrows="1" fold="1" page="1" pageScale="1" pageWidth="850" pageHeight="1100" math="0" shadow="0">
            <root>
                <mxCell id="0"/>
                <mxCell id="1" parent="0"/>
                <mxCell id="rBwz4sKgbeKu7bnGhmg9-1" style="edgeStyle=none;html=1;dashed=1;strokeColor=default;endArrow=none;endFill=0;" edge="1" parent="1" source="rBwz4sKgbeKu7bnGhmg9-11">
                    <mxGeometry relative="1" as="geometry">
                        <mxPoint x="135" y="650" as="targetPoint"/>
                    </mxGeometry>
                </mxCell>
                <mxCell id="rBwz4sKgbeKu7bnGhmg9-2" value="" style="shape=umlActor;verticalLabelPosition=bottom;verticalAlign=top;html=1;" vertex="1" parent="1">
                    <mxGeometry x="120" y="90" width="30" height="60" as="geometry"/>
                </mxCell>
                <mxCell id="rBwz4sKgbeKu7bnGhmg9-3" value="Servire" style="shape=umlLifeline;perimeter=lifelinePerimeter;whiteSpace=wrap;html=1;container=1;dropTarget=0;collapsible=0;recursiveResize=0;outlineConnect=0;portConstraint=eastwest;newEdgeStyle={&quot;edgeStyle&quot;:&quot;elbowEdgeStyle&quot;,&quot;elbow&quot;:&quot;vertical&quot;,&quot;curved&quot;:0,&quot;rounded&quot;:0};" vertex="1" parent="1">
                    <mxGeometry x="660" y="90" width="100" height="570" as="geometry"/>
                </mxCell>
                <mxCell id="rBwz4sKgbeKu7bnGhmg9-4" value="" style="html=1;points=[[0,0,0,0,5],[0,1,0,0,-5],[1,0,0,0,5],[1,1,0,0,-5]];perimeter=orthogonalPerimeter;outlineConnect=0;targetShapes=umlLifeline;portConstraint=eastwest;newEdgeStyle={&quot;curved&quot;:0,&quot;rounded&quot;:0};fillColor=default;" vertex="1" parent="rBwz4sKgbeKu7bnGhmg9-3">
                    <mxGeometry x="45" y="90" width="10" height="410" as="geometry"/>
                </mxCell>
                <mxCell id="rBwz4sKgbeKu7bnGhmg9-5" value="" style="group" vertex="1" connectable="0" parent="1">
                    <mxGeometry x="360" y="90" width="100" height="560" as="geometry"/>
                </mxCell>
                <mxCell id="rBwz4sKgbeKu7bnGhmg9-6" value="App" style="shape=umlLifeline;perimeter=lifelinePerimeter;whiteSpace=wrap;html=1;container=0;dropTarget=0;collapsible=0;recursiveResize=0;outlineConnect=0;portConstraint=eastwest;newEdgeStyle={&quot;edgeStyle&quot;:&quot;elbowEdgeStyle&quot;,&quot;elbow&quot;:&quot;vertical&quot;,&quot;curved&quot;:0,&quot;rounded&quot;:0};" vertex="1" parent="rBwz4sKgbeKu7bnGhmg9-5">
                    <mxGeometry width="100" height="560" as="geometry"/>
                </mxCell>
                <mxCell id="rBwz4sKgbeKu7bnGhmg9-7" value="" style="html=1;points=[[0,0,0,0,5],[0,1,0,0,-5],[1,0,0,0,5],[1,1,0,0,-5]];perimeter=orthogonalPerimeter;outlineConnect=0;targetShapes=umlLifeline;portConstraint=eastwest;newEdgeStyle={&quot;curved&quot;:0,&quot;rounded&quot;:0};" vertex="1" parent="rBwz4sKgbeKu7bnGhmg9-5">
                    <mxGeometry x="45" y="90" width="10" height="409.46" as="geometry"/>
                </mxCell>
                <mxCell id="jA2fxqbbW53NidVdo4DM-7" value="no user" style="edgeStyle=none;html=1;curved=0;rounded=0;dashed=1;" edge="1" parent="rBwz4sKgbeKu7bnGhmg9-5">
                    <mxGeometry relative="1" as="geometry">
                        <mxPoint x="345" y="370" as="sourcePoint"/>
                        <mxPoint x="55" y="370" as="targetPoint"/>
                    </mxGeometry>
                </mxCell>
                <mxCell id="rBwz4sKgbeKu7bnGhmg9-8" value="" style="edgeStyle=none;html=1;dashed=1;strokeColor=default;endArrow=none;endFill=0;" edge="1" parent="1" source="rBwz4sKgbeKu7bnGhmg9-2" target="rBwz4sKgbeKu7bnGhmg9-11">
                    <mxGeometry relative="1" as="geometry">
                        <mxPoint x="135" y="510" as="targetPoint"/>
                        <mxPoint x="135" y="150" as="sourcePoint"/>
                    </mxGeometry>
                </mxCell>
                <mxCell id="rBwz4sKgbeKu7bnGhmg9-9" style="edgeStyle=none;html=1;curved=0;rounded=0;" edge="1" parent="1">
                    <mxGeometry relative="1" as="geometry">
                        <mxPoint x="140" y="210" as="sourcePoint"/>
                        <mxPoint x="405" y="210" as="targetPoint"/>
                    </mxGeometry>
                </mxCell>
                <mxCell id="rBwz4sKgbeKu7bnGhmg9-10" value="Scan" style="edgeLabel;html=1;align=center;verticalAlign=middle;resizable=0;points=[];" vertex="1" connectable="0" parent="rBwz4sKgbeKu7bnGhmg9-9">
                    <mxGeometry x="-0.2679" y="3" relative="1" as="geometry">
                        <mxPoint x="23" as="offset"/>
                    </mxGeometry>
                </mxCell>
                <mxCell id="rBwz4sKgbeKu7bnGhmg9-11" value="" style="html=1;points=[[0,0,0,0,5],[0,1,0,0,-5],[1,0,0,0,5],[1,1,0,0,-5]];perimeter=orthogonalPerimeter;outlineConnect=0;targetShapes=umlLifeline;portConstraint=eastwest;newEdgeStyle={&quot;curved&quot;:0,&quot;rounded&quot;:0};" vertex="1" parent="1">
                    <mxGeometry x="130" y="180" width="10" height="410" as="geometry"/>
                </mxCell>
                <mxCell id="rBwz4sKgbeKu7bnGhmg9-12" style="edgeStyle=none;html=1;curved=0;rounded=0;" edge="1" parent="1" source="rBwz4sKgbeKu7bnGhmg9-7" target="rBwz4sKgbeKu7bnGhmg9-3">
                    <mxGeometry relative="1" as="geometry">
                        <Array as="points">
                            <mxPoint x="440" y="210"/>
                        </Array>
                    </mxGeometry>
                </mxCell>
                <mxCell id="rBwz4sKgbeKu7bnGhmg9-13" value="check id user" style="edgeLabel;html=1;align=center;verticalAlign=middle;resizable=0;points=[];" vertex="1" connectable="0" parent="rBwz4sKgbeKu7bnGhmg9-12">
                    <mxGeometry x="-0.0526" y="1" relative="1" as="geometry">
                        <mxPoint as="offset"/>
                    </mxGeometry>
                </mxCell>
                <mxCell id="rBwz4sKgbeKu7bnGhmg9-18" value="Alt" style="shape=umlFrame;whiteSpace=wrap;html=1;pointerEvents=0;recursiveResize=0;container=1;collapsible=0;width=170;" vertex="1" parent="1">
                    <mxGeometry x="70" y="240" width="680" height="270" as="geometry"/>
                </mxCell>
                <mxCell id="rBwz4sKgbeKu7bnGhmg9-19" value="if true" style="text;html=1;" vertex="1" parent="rBwz4sKgbeKu7bnGhmg9-18">
                    <mxGeometry width="100" height="20" relative="1" as="geometry">
                        <mxPoint x="18" y="30" as="offset"/>
                    </mxGeometry>
                </mxCell>
                <mxCell id="rBwz4sKgbeKu7bnGhmg9-20" value="else" style="line;strokeWidth=1;dashed=1;labelPosition=center;verticalLabelPosition=bottom;align=left;verticalAlign=top;spacingLeft=20;spacingTop=15;html=1;whiteSpace=wrap;" vertex="1" parent="rBwz4sKgbeKu7bnGhmg9-18">
                    <mxGeometry y="170" width="680" height="10" as="geometry"/>
                </mxCell>
                <mxCell id="jA2fxqbbW53NidVdo4DM-1" style="edgeStyle=none;html=1;curved=0;rounded=0;" edge="1" parent="rBwz4sKgbeKu7bnGhmg9-18">
                    <mxGeometry relative="1" as="geometry">
                        <mxPoint x="345" y="100" as="sourcePoint"/>
                        <mxPoint x="635" y="100" as="targetPoint"/>
                    </mxGeometry>
                </mxCell>
                <mxCell id="jA2fxqbbW53NidVdo4DM-2" value="checking" style="edgeLabel;html=1;align=center;verticalAlign=middle;resizable=0;points=[];" vertex="1" connectable="0" parent="jA2fxqbbW53NidVdo4DM-1">
                    <mxGeometry x="0.0621" y="-2" relative="1" as="geometry">
                        <mxPoint x="-9" as="offset"/>
                    </mxGeometry>
                </mxCell>
                <mxCell id="jA2fxqbbW53NidVdo4DM-8" style="edgeStyle=none;html=1;curved=0;rounded=0;dashed=1;" edge="1" parent="rBwz4sKgbeKu7bnGhmg9-18">
                    <mxGeometry relative="1" as="geometry">
                        <mxPoint x="335" y="220" as="sourcePoint"/>
                        <mxPoint x="70" y="220" as="targetPoint"/>
                    </mxGeometry>
                </mxCell>
                <mxCell id="jA2fxqbbW53NidVdo4DM-11" value="check again" style="edgeLabel;html=1;align=center;verticalAlign=middle;resizable=0;points=[];" vertex="1" connectable="0" parent="jA2fxqbbW53NidVdo4DM-8">
                    <mxGeometry x="0.0264" relative="1" as="geometry">
                        <mxPoint as="offset"/>
                    </mxGeometry>
                </mxCell>
                <mxCell id="rBwz4sKgbeKu7bnGhmg9-23" style="edgeStyle=none;html=1;curved=0;rounded=0;dashed=1;" edge="1" parent="1">
                    <mxGeometry relative="1" as="geometry">
                        <mxPoint x="705" y="299.58" as="sourcePoint"/>
                        <mxPoint x="415" y="299.58" as="targetPoint"/>
                    </mxGeometry>
                </mxCell>
                <mxCell id="rBwz4sKgbeKu7bnGhmg9-24" value="user information" style="edgeLabel;html=1;align=center;verticalAlign=middle;resizable=0;points=[];" vertex="1" connectable="0" parent="rBwz4sKgbeKu7bnGhmg9-23">
                    <mxGeometry x="0.0264" y="-1" relative="1" as="geometry">
                        <mxPoint as="offset"/>
                    </mxGeometry>
                </mxCell>
                <mxCell id="jA2fxqbbW53NidVdo4DM-3" style="edgeStyle=none;html=1;curved=0;rounded=0;dashed=1;" edge="1" parent="1" source="rBwz4sKgbeKu7bnGhmg9-4" target="rBwz4sKgbeKu7bnGhmg9-7">
                    <mxGeometry relative="1" as="geometry"/>
                </mxCell>
                <mxCell id="jA2fxqbbW53NidVdo4DM-4" value="Done" style="edgeLabel;html=1;align=center;verticalAlign=middle;resizable=0;points=[];" vertex="1" connectable="0" parent="jA2fxqbbW53NidVdo4DM-3">
                    <mxGeometry x="-0.0828" relative="1" as="geometry">
                        <mxPoint x="-12" as="offset"/>
                    </mxGeometry>
                </mxCell>
                <mxCell id="jA2fxqbbW53NidVdo4DM-5" style="edgeStyle=none;html=1;curved=0;rounded=0;dashed=1;" edge="1" parent="1" source="rBwz4sKgbeKu7bnGhmg9-7" target="rBwz4sKgbeKu7bnGhmg9-11">
                    <mxGeometry relative="1" as="geometry"/>
                </mxCell>
                <mxCell id="jA2fxqbbW53NidVdo4DM-6" value="Done" style="edgeLabel;html=1;align=center;verticalAlign=middle;resizable=0;points=[];" vertex="1" connectable="0" parent="jA2fxqbbW53NidVdo4DM-5">
                    <mxGeometry x="0.1321" relative="1" as="geometry">
                        <mxPoint x="15" as="offset"/>
                    </mxGeometry>
                </mxCell>
            </root>
        </mxGraphModel>
    </diagram>
    <diagram id="fEf-68-ExXe95EaCQR_2" name="erd">
        <mxGraphModel dx="1144" dy="757" grid="1" gridSize="10" guides="1" tooltips="1" connect="1" arrows="1" fold="1" page="1" pageScale="1" pageWidth="850" pageHeight="1100" math="0" shadow="0">
            <root>
                <mxCell id="0"/>
                <mxCell id="1" parent="0"/>
            </root>
        </mxGraphModel>
    </diagram>
</mxfile>